<svg width="1055" height="1438" viewBox="0 0 1055 1438" fill="none" xmlns="http://www.w3.org/2000/svg">
<path d="M223.089 1198.6C178.689 1141 137.589 1048.93 122.589 1010.1L99.5889 1005.6C90.5889 1003.77 68.0889 998.6 50.0889 992.6C27.5889 985.1 15.5889 974.1 6.08894 962.6C-1.51105 953.4 0.255612 942.1 2.08895 937.6L26.5889 875.1L53.0889 795.6C69.5889 746.1 75.5889 767.6 63.5889 690.1C51.5889 612.6 43.589 628.1 38.089 553.6C33.689 494 45.9223 440.1 52.589 420.6L82.589 327.6C103.089 277.099 165.689 158.099 252.089 86.0988C338.489 14.0988 428.756 -0.901244 463.089 0.598756C459.422 1.43209 489.289 88.7988 638.089 431.599C786.889 774.399 977.422 996.765 1054.09 1065.1C1051.92 1159.77 1047.49 1352.3 1047.09 1365.1C1046.59 1381.1 1038.59 1384.6 1038.59 1385.1C1038.59 1385.5 1022.92 1394.93 1015.09 1399.6C1007.26 1403.1 978.889 1412.9 928.089 1424.1C864.589 1438.1 808.089 1440.6 740.089 1434.1C685.689 1428.9 652.756 1418.6 643.089 1414.1C641.589 1413.43 634.089 1410 616.089 1401.6C598.089 1393.2 590.256 1372.43 588.589 1363.1C588.589 1335.43 588.189 1278.6 586.589 1272.6C584.989 1266.6 578.922 1267.77 576.089 1269.1C566.089 1272.93 540.989 1283.1 520.589 1293.1C500.189 1303.1 470.756 1314.27 458.589 1318.6L435.089 1324.1C419.589 1328.43 380.089 1332.5 346.089 1314.1C303.589 1291.1 278.589 1270.6 223.089 1198.6Z" fill="white" stroke="black"/>image.png
</svg>
