<svg width="253" height="182" viewBox="0 0 253 182" fill="none" xmlns="http://www.w3.org/2000/svg">
<g filter="url(#filter0_d_240_33)">
<path d="M249 73C249 113.317 216.317 146 176 146C135.683 146 103 113.317 103 73C103 32.6832 135.683 0 176 0C216.317 0 249 32.6832 249 73ZM151.979 73C151.979 86.2666 162.733 97.0214 176 97.0214C189.267 97.0214 200.021 86.2666 200.021 73C200.021 59.7334 189.267 48.9786 176 48.9786C162.733 48.9786 151.979 59.7334 151.979 73Z" fill="white"/>
</g>
<rect y="114.498" width="123" height="74.5838" transform="rotate(-25.266 0 114.498)" fill="white"/>
<defs>
<filter id="filter0_d_240_33" x="99" y="0" width="154" height="154" filterUnits="userSpaceOnUse" color-interpolation-filters="sRGB">
<feFlood flood-opacity="0" result="BackgroundImageFix"/>
<feColorMatrix in="SourceAlpha" type="matrix" values="0 0 0 0 0 0 0 0 0 0 0 0 0 0 0 0 0 0 127 0" result="hardAlpha"/>
<feOffset dy="4"/>
<feGaussianBlur stdDeviation="2"/>
<feComposite in2="hardAlpha" operator="out"/>
<feColorMatrix type="matrix" values="0 0 0 0 0 0 0 0 0 0 0 0 0 0 0 0 0 0 0.25 0"/>
<feBlend mode="normal" in2="BackgroundImageFix" result="effect1_dropShadow_240_33"/>
<feBlend mode="normal" in="SourceGraphic" in2="effect1_dropShadow_240_33" result="shape"/>
</filter>
</defs>
</svg>
