<svg width="362" height="506" viewBox="0 0 362 506" fill="none" xmlns="http://www.w3.org/2000/svg">
<path d="M193.368 214.5L169.368 239.5L130.868 231C119.368 229.5 97.8681 222.3 103.868 205.5C109.868 188.7 123.368 177.5 129.368 174L142.868 160.5L193.368 214.5Z" fill="white"/>
<g filter="url(#filter0_d_240_32)">
<path d="M357.868 73C357.868 113.317 325.185 146 284.868 146C244.551 146 211.868 113.317 211.868 73C211.868 32.6832 244.551 0 284.868 0C325.185 0 357.868 32.6832 357.868 73ZM260.847 73C260.847 86.2666 271.601 97.0214 284.868 97.0214C298.135 97.0214 308.889 86.2666 308.889 73C308.889 59.7334 298.135 48.9786 284.868 48.9786C271.601 48.9786 260.847 59.7334 260.847 73Z" fill="white"/>
</g>
<rect x="129.318" y="173.525" width="129.27" height="75.7515" transform="rotate(-43.832 129.318 173.525)" fill="white"/>
<rect y="478.912" width="292.838" height="75.7515" transform="rotate(-69.3114 0 478.912)" fill="white"/>
<defs>
<filter id="filter0_d_240_32" x="207.868" y="0" width="154" height="154" filterUnits="userSpaceOnUse" color-interpolation-filters="sRGB">
<feFlood flood-opacity="0" result="BackgroundImageFix"/>
<feColorMatrix in="SourceAlpha" type="matrix" values="0 0 0 0 0 0 0 0 0 0 0 0 0 0 0 0 0 0 127 0" result="hardAlpha"/>
<feOffset dy="4"/>
<feGaussianBlur stdDeviation="2"/>
<feComposite in2="hardAlpha" operator="out"/>
<feColorMatrix type="matrix" values="0 0 0 0 0 0 0 0 0 0 0 0 0 0 0 0 0 0 0.25 0"/>
<feBlend mode="normal" in2="BackgroundImageFix" result="effect1_dropShadow_240_32"/>
<feBlend mode="normal" in="SourceGraphic" in2="effect1_dropShadow_240_32" result="shape"/>
</filter>
</defs>
</svg>
