<svg width="338" height="155" viewBox="0 0 338 155" fill="none" xmlns="http://www.w3.org/2000/svg">
<g filter="url(#filter0_d_248_41)">
<path d="M333.855 73.2754C333.855 113.592 301.172 146.275 260.855 146.275C220.538 146.275 187.855 113.592 187.855 73.2754C187.855 32.9586 220.538 0.275391 260.855 0.275391C301.172 0.275391 333.855 32.9586 333.855 73.2754ZM236.834 73.2754C236.834 86.542 247.588 97.2967 260.855 97.2967C274.122 97.2967 284.876 86.542 284.876 73.2754C284.876 60.0088 274.122 49.254 260.855 49.254C247.588 49.254 236.834 60.0088 236.834 73.2754Z" fill="white"/>
</g>
<rect x="11.3607" width="199.156" height="75.7515" transform="rotate(8.62539 11.3607 0)" fill="white"/>
<defs>
<filter id="filter0_d_248_41" x="183.855" y="0.275391" width="154" height="154" filterUnits="userSpaceOnUse" color-interpolation-filters="sRGB">
<feFlood flood-opacity="0" result="BackgroundImageFix"/>
<feColorMatrix in="SourceAlpha" type="matrix" values="0 0 0 0 0 0 0 0 0 0 0 0 0 0 0 0 0 0 127 0" result="hardAlpha"/>
<feOffset dy="4"/>
<feGaussianBlur stdDeviation="2"/>
<feComposite in2="hardAlpha" operator="out"/>
<feColorMatrix type="matrix" values="0 0 0 0 0 0 0 0 0 0 0 0 0 0 0 0 0 0 0.25 0"/>
<feBlend mode="normal" in2="BackgroundImageFix" result="effect1_dropShadow_248_41"/>
<feBlend mode="normal" in="SourceGraphic" in2="effect1_dropShadow_248_41" result="shape"/>
</filter>
</defs>
</svg>
